<?xml version="1.0" encoding="UTF-8"?>
<svg width="24px" height="24px" viewBox="0 0 24 24" version="1.1" xmlns="http://www.w3.org/2000/svg">
    <g stroke="none" stroke-width="1" fill="none" fill-rule="evenodd">
        <path d="M12,2 C12.5523,2 13,2.44772 13,3 L13,5 C13,5.55228 12.5523,6 12,6 C11.4477,6 11,5.55228 11,5 L11,3 C11,2.44772 11.4477,2 12,2 Z" fill="#A855F7"/>
        <path d="M4,12 L20,12 C20.5523,12 21,12.4477 21,13 L21,19 C21,20.6569 19.6569,22 18,22 L6,22 C4.34315,22 3,20.6569 3,19 L3,13 C3,12.4477 3.44772,12 4,12 Z" fill="#A855F7"/>
        <path d="M5,8 L19,8 C19.5523,8 20,8.44772 20,9 L20,11 C20,11.5523 19.5523,12 19,12 L5,12 C4.44772,12 4,11.5523 4,11 L4,9 C4,8.44772 4.44772,8 5,8 Z" fill="#C084FC"/>
    </g>
</svg> 
